<svg width="93" height="92" viewBox="0 0 93 92" fill="none" xmlns="http://www.w3.org/2000/svg">
<path d="M65.668 23C74.6593 23 77.2384 23 80.3354 25.3764C81.1327 25.9882 81.8464 26.7019 82.4582 27.4992C84.8346 30.5963 84.8346 35.092 84.8346 44.0833V61.3333C84.8346 72.1756 84.8346 77.5968 81.4664 80.9651C78.0981 84.3333 72.6769 84.3333 61.8346 84.3333H31.168C20.3257 84.3333 14.9045 84.3333 11.5362 80.9651C8.16797 77.5968 8.16797 72.1756 8.16797 61.3333V44.0833C8.16797 35.092 8.16797 30.5963 10.5444 27.4992C11.1562 26.7019 11.8699 25.9882 12.6672 25.3764C15.7642 23 18.3433 23 27.3346 23" stroke="#858585" stroke-width="5" stroke-linecap="round"/>
<path d="M65.6693 26.8307L62.2736 18.3415C60.8085 14.6789 59.5336 10.5241 55.7664 8.65901C53.7568 7.66406 51.3387 7.66406 46.5026 7.66406C41.6665 7.66406 39.2484 7.66406 37.2388 8.65901C33.4716 10.5241 32.1967 14.6789 30.7316 18.3415L27.3359 26.8307" stroke="#858585" stroke-width="5" stroke-linecap="round" stroke-linejoin="round"/>
<path d="M59.9193 53.6667C59.9193 61.0765 53.9124 67.0833 46.5026 67.0833C39.0928 67.0833 33.0859 61.0765 33.0859 53.6667C33.0859 46.2568 39.0928 40.25 46.5026 40.25C53.9124 40.25 59.9193 46.2568 59.9193 53.6667Z" stroke="#858585" stroke-width="5"/>
<path d="M46.4993 23H46.5337" stroke="#858585" stroke-width="5" stroke-linecap="round" stroke-linejoin="round"/>
</svg>
