<svg width="220" height="220" viewBox="0 0 220 220" fill="none" xmlns="http://www.w3.org/2000/svg">
<rect x="0.5" y="0.5" width="219" height="219" rx="109.5" fill="#141414"/>
<rect x="0.5" y="0.5" width="219" height="219" rx="109.5" stroke="#212121"/>
<path d="M131.25 84.5C141.219 84.5 144.078 84.5 147.512 87.1347C148.396 87.8131 149.187 88.6043 149.865 89.4883C152.5 92.922 152.5 97.9063 152.5 107.875V127C152.5 139.021 152.5 145.031 148.766 148.766C145.031 152.5 139.021 152.5 127 152.5H93C80.9792 152.5 74.9688 152.5 71.2344 148.766C67.5 145.031 67.5 139.021 67.5 127V107.875C67.5 97.9063 67.5 92.922 70.1347 89.4883C70.8131 88.6043 71.6043 87.8131 72.4883 87.1347C75.922 84.5 78.7813 84.5 88.75 84.5" stroke="#858585" stroke-width="5" stroke-linecap="round"/>
<path d="M131.25 88.75L127.485 79.3381C125.861 75.2773 124.447 70.6709 120.271 68.6031C118.043 67.5 115.362 67.5 110 67.5C104.638 67.5 101.957 67.5 99.7293 68.6031C95.5526 70.6709 94.1391 75.2773 92.5148 79.3381L88.75 88.75" stroke="#858585" stroke-width="5" stroke-linecap="round" stroke-linejoin="round"/>
<path d="M124.875 118.5C124.875 126.715 118.215 133.375 110 133.375C101.785 133.375 95.125 126.715 95.125 118.5C95.125 110.285 101.785 103.625 110 103.625C118.215 103.625 124.875 110.285 124.875 118.5Z" stroke="#858585" stroke-width="5"/>
<path d="M109.999 84.5H110.037" stroke="#858585" stroke-width="5" stroke-linecap="round" stroke-linejoin="round"/>
</svg>
