<svg width="201" height="35" viewBox="0 0 201 35" fill="none" xmlns="http://www.w3.org/2000/svg">
<path d="M42.9678 27.5858V5.375H41.1875V29.3608H60.1182V27.5858H42.9678Z" fill="black"/>
<path d="M83.7895 5.375V17.3355C83.7895 24.5431 80.9895 27.5157 73.8466 27.5157C66.7038 27.5157 63.9038 24.5431 63.9038 17.3355V5.375H62.1289V17.3355C62.1289 25.5358 65.7165 29.2906 73.8466 29.2906C81.9768 29.2906 85.5644 25.5358 85.5644 17.3355V5.375H83.7895Z" fill="black"/>
<path d="M109.339 17.3031C113.785 15.6253 115.695 11.5953 115.695 5.375H113.92C113.92 12.8254 111.184 16.4453 103.599 16.4453C96.0139 16.4453 93.2463 12.8254 93.2463 5.375H91.5038C91.5038 11.5953 93.419 15.6253 97.859 17.3031C93.2463 18.9756 91.0938 22.9732 91.0938 29.2906H92.8741C92.8741 21.7054 96.0517 18.2257 103.599 18.2257C111.152 18.2257 114.33 21.7054 114.33 29.2906H116.105C116.105 22.9732 113.92 18.9756 109.339 17.3031Z" fill="black"/>
<path d="M143.162 7.15532V5.375H123.52V29.3608H143.162V27.5481H125.294V18.3605H140.907V16.5856H125.294V7.15532H143.162Z" fill="black"/>
<path d="M151.773 27.5858V5.375H149.992V29.3608H168.923V27.5858H151.773Z" fill="black"/>
<path d="M198.984 29.2906H201.002L187.439 5.375H186.004L172.441 29.2906H174.491L177.874 23.3454H195.602L198.984 29.2906ZM178.861 21.5705L186.722 7.70021L194.577 21.5705H178.861Z" fill="black"/>
<path d="M17.3689 33.6831C26.379 33.6831 33.6831 26.379 33.6831 17.3689C33.6831 8.3588 26.379 1.05469 17.3689 1.05469C8.3588 1.05469 1.05469 8.3588 1.05469 17.3689C1.05469 26.379 8.3588 33.6831 17.3689 33.6831Z" fill="black" stroke="black" strokeWidth="0.755907"/>
<path d="M17.6223 16.5514H18.7175C18.7175 16.8535 18.4693 17.0962 18.1672 17.0962C17.8651 17.0962 17.6223 16.8535 17.6223 16.5514ZM16.6998 14.5391H16.8077L16.9102 14.5499L17.0073 14.5606L17.1098 14.5768L17.2069 14.5984L17.2986 14.6254L17.3957 14.6578L17.4875 14.6955L17.5738 14.7387L17.6601 14.7818L17.7464 14.8304L17.8273 14.8843L17.9083 14.9383L17.9838 14.9976L18.0539 15.0624L18.1241 15.1271L18.1942 15.1972L18.2535 15.2674L18.3183 15.3483L18.3722 15.4238L18.4262 15.5048L18.4747 15.5911L18.5179 15.6774L18.5556 15.7691L18.5934 15.8608L18.6258 15.9525L18.6528 16.0496L18.6743 16.1467L18.6905 16.2439L18.7067 16.3464L18.7121 16.4489L18.7175 16.5514H17.6223V16.5028L17.6169 16.4543L17.6115 16.4111L17.6061 16.3625L17.5954 16.3194L17.5792 16.2762L17.5684 16.2331L17.5522 16.1953L17.5306 16.1521L17.509 16.1144L17.4875 16.0766L17.4659 16.0388L17.4389 16.0011L17.4119 15.9633L17.385 15.9309L17.3526 15.8986L17.3202 15.8716L17.2878 15.8392L17.2501 15.8123L17.2177 15.7853L17.1799 15.7637L17.1422 15.7421L17.099 15.7205L17.0613 15.7044L17.0181 15.6882L16.9749 15.672L16.9318 15.6612L16.8886 15.6504L16.8455 15.6396L16.7969 15.6342H16.7484L16.6998 15.6288V14.5391ZM14.6875 16.5514L14.6929 16.4489L14.6983 16.3464L14.7145 16.2439L14.7307 16.1467L14.7522 16.0496L14.7792 15.9525L14.8116 15.8608L14.8493 15.7691L14.8871 15.6774L14.9303 15.5911L14.9788 15.5048L15.0328 15.4238L15.0867 15.3483L15.1515 15.2674L15.2108 15.1972L15.2809 15.1271L15.3511 15.0624L15.4212 14.9976L15.4967 14.9383L15.5777 14.8843L15.6586 14.8304L15.7449 14.7818L15.8312 14.7387L15.9175 14.6955L16.0093 14.6578L16.1064 14.6254L16.1981 14.5984L16.2952 14.5768L16.3977 14.5606L16.4948 14.5499L16.5973 14.5391H16.6998V15.6288L16.6566 15.6342H16.6081L16.5595 15.6396L16.5164 15.6504L16.4732 15.6612L16.4301 15.672L16.3869 15.6882L16.3437 15.7044L16.306 15.7205L16.2628 15.7421L16.225 15.7637L16.1873 15.7853L16.1549 15.8123L16.1172 15.8392L16.0848 15.8716L16.0524 15.8986L16.02 15.9309L15.9931 15.9633L15.9661 16.0011L15.9391 16.0388L15.9175 16.0766L15.8906 16.1144L15.8744 16.1521L15.8528 16.1953L15.8366 16.2331L15.8258 16.2762L15.8096 16.3194L15.7989 16.3625L15.7935 16.4111L15.7881 16.4543L15.7827 16.5028V16.5514H14.6875ZM14.6875 16.5729V16.5622V16.5999V16.5945V16.5622V16.5568V16.5514H15.7827V16.5568L14.6875 16.5729ZM14.6875 16.5729L15.7827 16.5568C15.7881 16.8589 15.5453 17.107 15.2432 17.1124C14.9411 17.1124 14.6929 16.8751 14.6875 16.5729Z" fill="white"/>
<path d="M18.9492 18.11C24.7487 18.1262 26.8635 20.9154 26.8635 26.6286H28.2069C28.2069 21.8433 26.7341 18.7412 23.3137 17.4519C26.8635 16.1679 28.5198 13.0874 28.5198 8.22656H27.1549C27.1549 14.0423 24.7218 16.7289 18.9492 16.7451V18.11Z" fill="white"/>
<path fill-rule="evenodd" clip-rule="evenodd" d="M19.505 17.625C19.807 17.625 20.0517 17.8698 20.0517 18.1717V18.1825C20.0517 19.3004 19.1475 20.1967 18.0376 20.1967C16.9277 20.1967 16.0234 19.3004 16.0234 18.1825C16.0234 17.8806 16.2682 17.6358 16.5702 17.6358C16.8721 17.6358 17.1169 17.8806 17.1169 18.1825C17.1169 18.6939 17.529 19.1032 18.0376 19.1032C18.5462 19.1032 18.9583 18.6939 18.9583 18.1825V18.1718C18.9583 17.8698 19.203 17.625 19.505 17.625Z" fill="white"/>
<path d="M15.7893 16.6279C9.99518 16.6117 7.87499 13.8226 7.87499 8.10938H6.53705C6.53705 12.8947 8.00986 15.9967 11.4248 17.2861C7.87499 18.5755 6.21875 21.6506 6.21875 26.5114H7.58906C7.58906 20.6957 10.0168 18.0144 15.7893 17.9982V16.6279Z" fill="white"/>
</svg>

