<svg width="120" height="121" viewBox="0 0 120 121" fill="none" xmlns="http://www.w3.org/2000/svg">
<rect x="0.5" y="1" width="119" height="119" rx="59.5" fill="#212121"/>
<rect x="0.5" y="1" width="119" height="119" rx="59.5" stroke="#2F2F2F"/>
<path d="M72.082 45.5C77.7505 45.5 79.3764 45.5 81.3289 46.9982C81.8315 47.3839 82.2815 47.8338 82.6672 48.3365C84.1654 50.289 84.1654 53.1232 84.1654 58.7917V69.6667C84.1654 76.502 84.1654 79.9197 82.0419 82.0432C79.9184 84.1667 76.5007 84.1667 69.6654 84.1667H50.332C43.4967 84.1667 40.079 84.1667 37.9555 82.0432C35.832 79.9197 35.832 76.502 35.832 69.6667V58.7917C35.832 53.1232 35.832 50.289 37.3302 48.3365C37.7159 47.8338 38.1659 47.3839 38.6685 46.9982C40.621 45.5 42.2469 45.5 47.9154 45.5" stroke="#858585" strokeWidth="2" strokeLinecap="round"/>
<path d="M72.0807 47.9193L69.94 42.5674C69.0164 40.2583 68.2126 37.639 65.8376 36.4632C64.5707 35.8359 63.0463 35.8359 59.9974 35.8359C56.9485 35.8359 55.4241 35.8359 54.1572 36.4632C51.7822 37.639 50.9784 40.2583 50.0548 42.5674L47.9141 47.9193" stroke="#858585" strokeWidth="2" strokeLinecap="round" strokeLinejoin="round"/>
<path d="M68.4557 64.8333C68.4557 69.5047 64.6688 73.2917 59.9974 73.2917C55.326 73.2917 51.5391 69.5047 51.5391 64.8333C51.5391 60.1619 55.326 56.375 59.9974 56.375C64.6688 56.375 68.4557 60.1619 68.4557 64.8333Z" stroke="#858585" strokeWidth="2"/>
<path d="M59.9995 45.5H60.0212" stroke="#858585" strokeWidth="2" strokeLinecap="round" strokeLinejoin="round"/>
<rect x="96.5" y="96.5" width="23" height="23" rx="11.5" fill="#212121"/>
<rect x="96.5" y="96.5" width="23" height="23" rx="11.5" stroke="#2F2F2F"/>
<path d="M101.332 114.669C101.617 113.471 101.916 112.218 102.212 111.687C102.509 111.156 102.944 110.721 103.816 109.849L110.677 102.988L111.845 101.82C112.49 101.175 113.536 101.175 114.182 101.82C114.827 102.465 114.827 103.511 114.182 104.156L113.013 105.324L106.152 112.186C105.281 113.057 104.845 113.492 104.314 113.789C103.784 114.086 102.53 114.384 101.332 114.669Z" fill="#8451E1"/>
<path d="M107.164 114.672H112.164" stroke="#8451E1" strokeWidth="1.5" strokeLinecap="round"/>
</svg>
